<svg version="1.1" xmlns="http://www.w3.org/2000/svg" xmlns:xlink="http://www.w3.org/1999/xlink" width="37" height="40"><defs/><g><path fill="rgb(7,119,186)" stroke="none" paint-order="stroke fill markers" fill-rule="evenodd" d=" M 32.50639247894287 23.028722941875458 C 32.50639247894287 23.028722941875458 31.420398235321045 22.514022946357727 31.420398235321045 22.514022946357727 C 31.95359992980957 20.991160333156586 32.22019004821777 19.42868185043335 32.22019004821777 17.828527450561523 C 32.22019004821777 13.752891719341278 30.75338649749756 10.267001509666443 27.82029438018799 7.371469438076019 C 24.924796104431152 4.438363552093506 21.438997268676758 2.9715553522109985 17.36328411102295 2.9715553522109985 C 13.248990058898926 2.9715553522109985 9.743686199188232 4.438363552093506 6.8490891456604 7.371469438076019 C 3.9535908699035645 10.267001509666443 2.506399631500244 13.752891719341278 2.506399631500244 17.828527450561523 C 2.506399631500244 21.638593912124634 3.7631969451904297 24.952543079853058 6.277392387390137 27.771395981311798 C 8.791995525360107 30.59126991033554 11.915095329284668 32.20888388156891 15.64888048171997 32.62883251905441 C 15.64888048171997 32.62883251905441 15.64888048171997 33.771362364292145 15.64888048171997 33.771362364292145 C 11.915095329284668 33.39000856876373 8.714898109436035 31.847542226314545 6.0487823486328125 29.142942309379578 C 2.924781322479248 26.01941478252411 1.3632850646972656 22.248453676700592 1.3632850646972656 17.828527450561523 C 1.3632850646972656 13.44811499118805 2.924781322479248 9.695736587047577 6.0487823486328125 6.571698546409607 C 9.172397136688232 3.410086691379547 12.943883419036865 1.8285149931907654 17.36328411102295 1.8285149931907654 C 21.743696212768555 1.8285149931907654 25.496085166931152 3.410086691379547 28.620579719543457 6.571698546409607 C 31.782196044921875 9.695736587047577 33.36328315734863 13.44811499118805 33.36328315734863 17.828527450561523 C 33.36328315734863 19.619511902332306 33.07768154144287 21.35291039943695 32.50639247894287 23.028722941875458 Z M 11.64889144897461 4.114187300205231 C 11.64889144897461 4.114187300205231 10.314996719360352 5.467253029346466 7.648880958557129 8.171342432498932 C 4.981992721557617 10.838266432285309 3.6488919258117676 14.057055830955505 3.6488919258117676 17.828527450561523 C 3.6488919258117676 21.333817183971405 4.791985034942627 24.381278157234192 7.077699184417725 26.971522986888885 C 9.363284587860107 29.56248253583908 12.22018051147461 31.066864550113678 15.64888048171997 31.48579216003418 C 15.64888048171997 31.48579216003418 15.64888048171997 24.456936299800873 15.64888048171997 24.456936299800873 C 15.64888048171997 24.456936299800873 13.534698963165283 24.456936299800873 13.534698963165283 24.456936299800873 C 13.26759386062622 24.456936299800873 13.13479232788086 24.30551791191101 13.13479232788086 23.99992436170578 C 13.13479232788086 23.99992436170578 13.13479232788086 23.200153470039368 13.13479232788086 23.200153470039368 C 13.13479232788086 23.009629726409912 13.210494995117188 22.876896142959595 13.363295078277588 22.80021697282791 C 13.70608139038086 22.685963988304138 14.048781871795654 22.55261778831482 14.392083168029785 22.399872064590454 C 14.620585918426514 22.324111819267273 14.867692470550537 22.267036378383636 15.1347975730896 22.228441536426544 C 15.1347975730896 22.228441536426544 15.1347975730896 13.600043892860413 15.1347975730896 13.600043892860413 C 15.1347975730896 13.600043892860413 15.1347975730896 13.085854411125183 15.1347975730896 13.085854411125183 C 15.1347975730896 13.085854411125183 15.077698707580566 13.085854411125183 15.077698707580566 13.085854411125183 C 14.657686233520508 13.123938739299774 14.239283084869385 13.14292985200882 13.820279121398926 13.14292985200882 C 13.667994022369385 13.14292985200882 13.47757863998413 13.14292985200882 13.248990058898926 13.14292985200882 C 13.020487308502197 13.14292985200882 12.886698722839355 13.028778970241547 12.849083423614502 12.800273001194 C 12.849083423614502 12.800273001194 12.734885692596436 12.057067036628723 12.734885692596436 12.057067036628723 C 12.734885692596436 11.828561067581177 12.849083423614502 11.676632165908813 13.077693462371826 11.60005509853363 C 13.725092887878418 11.448126196861267 14.449182033538818 11.21962022781372 15.248995304107666 10.914435088634491 C 16.048787117004395 10.609760463237762 16.77199649810791 10.248418807983398 17.420382976531982 9.828572273254395 C 17.49608564376831 9.790998458862305 17.57228183746338 9.771394729614258 17.64888572692871 9.771394729614258 C 17.64888572692871 9.771394729614258 18.906283855438232 9.771394729614258 18.906283855438232 9.771394729614258 C 19.172380447387695 9.771394729614258 19.306190490722656 9.905149340629578 19.306190490722656 10.171331226825714 C 19.306190490722656 10.171331226825714 19.306190490722656 16.628820061683655 19.306190490722656 16.628820061683655 C 19.306190490722656 16.628820061683655 30.39208221435547 21.999935567378998 30.39208221435547 21.999935567378998 C 30.849087715148926 20.66698408126831 31.07769775390625 19.276752948760986 31.07769775390625 17.828527450561523 C 31.07769775390625 14.057055830955505 29.7250919342041 10.838266432285309 27.02048110961914 8.171342432498932 C 24.353485584259033 5.467253029346466 21.1347918510437 4.114187300205231 17.36328411102295 4.114187300205231 C 13.553195476531982 4.114187300205231 11.64889144897461 4.114187300205231 11.64889144897461 4.114187300205231 Z M 18.4491925239563 37.6000115275383 C 18.4491925239563 37.6000115275383 18.4491925239563 19.314326763153076 18.4491925239563 19.314326763153076 C 18.4491925239563 19.314326763153076 34.79199934005737 27.25720649957657 34.79199934005737 27.25720649957657 C 35.134785652160645 27.448138654232025 35.38189220428467 27.371459484100342 35.53469228744507 27.028700530529022 C 35.7250862121582 26.685941576957703 35.648890018463135 26.419861793518066 35.30618953704834 26.22841912508011 C 35.30618953704834 26.22841912508011 18.105998516082764 17.942780435085297 18.105998516082764 17.942780435085297 C 17.953584671020508 17.828527450561523 17.782180786132812 17.828527450561523 17.591786861419678 17.942780435085297 C 17.400899410247803 18.05703341960907 17.306185245513916 18.209881246089935 17.306185245513916 18.39989447593689 C 17.306185245513916 18.39989447593689 17.306185245513916 37.6000115275383 17.306185245513916 37.6000115275383 C 17.306185245513916 37.98034429550171 17.49608564376831 38.171378552913666 17.877495765686035 38.171378552913666 C 18.257790088653564 38.171378552913666 18.4491925239563 37.98034429550171 18.4491925239563 37.6000115275383 Z M 19.591792106628418 34.85732728242874 C 22.29638147354126 34.78013759851456 24.79199457168579 34.01896154880524 27.07768726348877 32.571654975414276 C 29.21049404144287 31.200108647346497 30.86769151687622 29.410043120384216 32.04878616333008 27.200131058692932 C 32.04878616333008 27.200131058692932 31.02049160003662 26.685941576957703 31.02049160003662 26.685941576957703 C 28.58208465576172 31.257286190986633 24.771996021270752 33.600033938884735 19.591792106628418 33.71428692340851 C 19.591792106628418 33.71428692340851 19.591792106628418 34.85732728242874 19.591792106628418 34.85732728242874 Z"/></g></svg>