<svg version="1.1" xmlns="http://www.w3.org/2000/svg" xmlns:xlink="http://www.w3.org/1999/xlink" width="42" height="37"><defs/><g><path fill="rgb(7,119,186)" stroke="none" paint-order="stroke fill markers" fill-rule="evenodd" d=" M 20.64794158935547 33.148582220077515 C 21.447733402252197 33.148582220077515 21.84813356399536 33.54902923107147 21.84813356399536 34.348800122737885 C 21.84813356399536 35.1485710144043 21.447733402252197 35.549018025398254 20.64794158935547 35.549018025398254 C 20.64794158935547 35.549018025398254 2.248030662536621 35.549018025398254 2.248030662536621 35.549018025398254 C 1.4477453231811523 35.549018025398254 1.0478386878967285 35.1485710144043 1.0478386878967285 34.348800122737885 C 1.0478386878967285 33.54902923107147 1.4477453231811523 33.148582220077515 2.248030662536621 33.148582220077515 C 2.248030662536621 33.148582220077515 3.4477291107177734 33.148582220077515 3.4477291107177734 33.148582220077515 C 3.4477291107177734 32.463064312934875 3.695329189300537 31.872706174850464 4.190937042236328 31.37709939479828 C 4.6855363845825195 30.920087456703186 5.256846904754639 30.69158148765564 5.905233383178711 30.69158148765564 C 5.905233383178711 30.69158148765564 16.93353271484375 30.69158148765564 16.93353271484375 30.69158148765564 C 17.61964178085327 30.69158148765564 18.20944881439209 30.920087456703186 18.70503520965576 31.37709939479828 C 19.16204071044922 31.872706174850464 19.390629291534424 32.463064312934875 19.390629291534424 33.148582220077515 C 19.390629291534424 33.148582220077515 20.64794158935547 33.148582220077515 20.64794158935547 33.148582220077515 Z M 16.248045921325684 1.834585726261139 C 16.742645263671875 1.2258490920066833 17.313934326171875 1.1871521472930908 17.962342262268066 1.720434844493866 C 17.962342262268066 1.720434844493866 28.248034477233887 10.348832488059998 28.248034477233887 10.348832488059998 C 28.85693883895874 10.844439268112183 28.89543390274048 11.415704190731049 28.362232208251953 12.063239872455597 C 28.362232208251953 12.063239872455597 27.50534152984619 13.03444129228592 27.50534152984619 13.03444129228592 C 27.0097336769104 13.68279379606247 26.43792963027954 13.739869236946106 25.79104518890381 13.205667614936829 C 25.79104518890381 13.205667614936829 23.962336540222168 11.66330337524414 23.962336540222168 11.66330337524414 C 23.619636058807373 11.397121489048004 23.333433628082275 11.415704190731049 23.104930877685547 11.720378816127777 C 22.838340759277344 12.025563955307007 22.85694456100464 12.31124746799469 23.16202974319458 12.577327251434326 C 23.770934104919434 13.111528873443604 23.809536457061768 13.68279379606247 23.276334762573242 14.291734635829926 C 23.276334762573242 14.291734635829926 20.93354320526123 17.09149432182312 20.93354320526123 17.09149432182312 C 20.93354320526123 17.09149432182312 26.3051495552063 21.606069803237915 26.3051495552063 21.606069803237915 C 26.762133598327637 21.07288920879364 27.313939094543457 20.787307798862457 27.96234703063965 20.748712956905365 C 28.64794111251831 20.672952711582184 29.256845474243164 20.862965941429138 29.79103422164917 21.31997787952423 C 29.79103422164917 21.31997787952423 39.44773769378662 29.66330462694168 39.44773769378662 29.66330462694168 C 40.057135581970215 30.196893632411957 40.11423444747925 30.768158555030823 39.61963510513306 31.37709939479828 C 39.61963510513306 31.37709939479828 36.47653675079346 35.1485710144043 36.47653675079346 35.1485710144043 C 35.94284152984619 35.75751185417175 35.37103748321533 35.81458729505539 34.76213312149048 35.32000154256821 C 34.76213312149048 35.32000154256821 25.047837257385254 26.92010986804962 25.047837257385254 26.92010986804962 C 24.552229404449463 26.46309792995453 24.266541957855225 25.91133463382721 24.190946578979492 25.26288002729416 C 24.152344226837158 24.57726001739502 24.342738151550293 23.987003982067108 24.762149810791016 23.491907715797424 C 24.762149810791016 23.491907715797424 19.390629291534424 18.97723013162613 19.390629291534424 18.97723013162613 C 19.390629291534424 18.97723013162613 17.047837734222412 21.777500331401825 17.047837734222412 21.777500331401825 C 16.514142513275146 22.387360095977783 15.942831993103027 22.425546526908875 15.333434104919434 21.891753315925598 C 14.990733623504639 21.663349449634552 14.7050461769104 21.701331675052643 14.476543426513672 22.00600630044937 C 14.20943832397461 22.3111914396286 14.228535652160645 22.596874952316284 14.533642292022705 22.86295473575592 C 14.533642292022705 22.86295473575592 16.41944980621338 24.40593159198761 16.41944980621338 24.40593159198761 C 17.028332710266113 24.939622700214386 17.06684923171997 25.511398136615753 16.533647537231445 26.12033897638321 C 16.533647537231445 26.12033897638321 15.676735401153564 27.148615837097168 15.676735401153564 27.148615837097168 C 15.181149005889893 27.758475601673126 14.609344959259033 27.815551042556763 13.962331771850586 27.320046365261078 C 13.962331771850586 27.320046365261078 3.7338457107543945 18.691648721694946 3.7338457107543945 18.691648721694946 C 3.085437774658203 18.15836602449417 3.02833890914917 17.56851840019226 3.562441825866699 16.92006379365921 C 3.562441825866699 16.92006379365921 4.419439792633057 15.948862373828888 4.419439792633057 15.948862373828888 C 4.914039134979248 15.340023636817932 5.485349655151367 15.282948195934296 6.1337361335754395 15.777533948421478 C 6.1337361335754395 15.777533948421478 7.962337493896484 17.377075731754303 7.962337493896484 17.377075731754303 C 8.305145263671875 17.64417654275894 8.590832710266113 17.60609221458435 8.819335460662842 17.26292484998703 C 9.085432052612305 16.958658635616302 9.066849708557129 16.67297512292862 8.762129306793213 16.40587431192398 C 8.152345180511475 15.911288559436798 8.11423635482788 15.340023636817932 8.647931575775146 14.691569030284882 C 8.647931575775146 14.691569030284882 14.876428604125977 7.205701231956482 14.876428604125977 7.205701231956482 C 15.409630298614502 6.596862494945526 15.980940818786621 6.558778166770935 16.590832233428955 7.091448247432709 C 16.93353271484375 7.358549058437347 17.219241619110107 7.319954216480255 17.447744369506836 6.9771952629089355 C 17.7138409614563 6.673031151294708 17.6953444480896 6.387449741363525 17.390645503997803 6.120348930358887 C 17.390645503997803 6.120348930358887 15.50533151626587 4.577269971370697 15.50533151626587 4.577269971370697 C 14.895440101623535 4.044089376926422 14.856945037841797 3.472824454307556 15.390640258789062 2.862964689731598 C 15.390640258789062 2.862964689731598 16.248045921325684 1.834585726261139 16.248045921325684 1.834585726261139 Z"/></g></svg>