<svg version="1.1" xmlns="http://www.w3.org/2000/svg" xmlns:xlink="http://www.w3.org/1999/xlink" width="32" height="30"><defs/><g><path fill="rgb(7,119,186)" stroke="none" paint-order="stroke fill markers" fill-rule="evenodd" d=" M 30.856890201568604 27.571527302265167 C 30.856890201568604 28.33372437953949 30.476080894470215 28.7140571475029 29.71439790725708 28.7140571475029 C 29.71439790725708 28.7140571475029 27.428683757781982 28.7140571475029 27.428683757781982 28.7140571475029 C 26.665992259979248 28.7140571475029 26.285590648651123 28.33372437953949 26.285590648651123 27.571527302265167 C 26.285590648651123 27.571527302265167 26.285590648651123 25.62861394882202 26.285590648651123 25.62861394882202 C 26.285590648651123 25.62861394882202 25.7143874168396 26.371309399604797 25.7143874168396 26.371309399604797 C 25.7143874168396 26.371309399604797 6.285581111907959 26.371309399604797 6.285581111907959 26.371309399604797 C 6.285581111907959 26.371309399604797 5.714399337768555 25.62861394882202 5.714399337768555 25.62861394882202 C 5.714399337768555 25.62861394882202 5.714399337768555 27.571527302265167 5.714399337768555 27.571527302265167 C 5.714399337768555 28.33372437953949 5.33298921585083 28.7140571475029 4.571284770965576 28.7140571475029 C 4.571284770965576 28.7140571475029 2.2855920791625977 28.7140571475029 2.2855920791625977 28.7140571475029 C 1.5233941078186035 28.7140571475029 1.1430997848510742 28.33372437953949 1.1430997848510742 27.571527302265167 C 1.1430997848510742 27.571527302265167 1.1430997848510742 21.685711801052094 1.1430997848510742 21.685711801052094 C 1.1430997848510742 18.524099946022034 1.3144822120666504 16.40985816717148 1.6571826934814453 15.343088567256927 C 2.114295482635498 14.00993287563324 2.571279525756836 13.248246312141418 3.028778553009033 13.057314157485962 C 3.751987934112549 11.152587234973907 4.399880886077881 9.552432835102081 4.97119140625 8.257055163383484 C 5.885695934295654 6.199990928173065 6.704585075378418 5.07686060667038 7.4286956787109375 4.885928452014923 C 7.847184658050537 4.771267056465149 10.247590065002441 4.714089512825012 14.628388404846191 4.714089512825012 C 14.628388404846191 4.714089512825012 17.371580123901367 4.714089512825012 17.371580123901367 4.714089512825012 C 21.751992225646973 4.714089512825012 24.151882648468018 4.771267056465149 24.57129430770874 4.885928452014923 C 25.29439640045166 5.07686060667038 26.114294052124023 6.199990928173065 27.028798580169678 8.257055163383484 C 27.600087642669678 9.552432835102081 28.247594356536865 11.152587234973907 28.971189975738525 13.057314157485962 C 29.428689002990723 13.248246312141418 29.88569450378418 14.00993287563324 30.342785835266113 15.343088567256927 C 30.685486316680908 16.40985816717148 30.856890201568604 18.524099946022034 30.856890201568604 21.685711801052094 C 30.856890201568604 21.685711801052094 30.856890201568604 27.571527302265167 30.856890201568604 27.571527302265167 Z M 28.057093143463135 16.428440868854523 C 27.37158489227295 16.428440868854523 26.608893394470215 16.714022278785706 25.771486282348633 17.285899817943573 C 25.237297534942627 17.628658771514893 24.761688232421875 18.105274438858032 24.34279155731201 18.714011073112488 C 22.818781852722168 20.46701329946518 22.20899772644043 21.32396173477173 22.514190196990967 21.285877406597137 C 22.514190196990967 21.285877406597137 9.485799789428711 21.285877406597137 9.485799789428711 21.285877406597137 C 9.789983749389648 21.32396173477173 9.18019962310791 20.46701329946518 7.657198429107666 18.714011073112488 C 7.237293243408203 18.105274438858032 6.761683940887451 17.628658771514893 6.228482246398926 17.285899817943573 C 5.390088081359863 16.714022278785706 4.628383636474609 16.428440868854523 3.942896842956543 16.428440868854523 C 2.7997822761535645 16.428440868854523 2.2284932136535645 17.191148459911346 2.2284932136535645 18.714011073112488 C 2.2284932136535645 19.285888612270355 2.361788272857666 19.705326735973358 2.6283998489379883 19.971406519412994 C 2.818793773651123 20.12425434589386 3.0858988761901855 20.19991248846054 3.428685188293457 20.19991248846054 C 3.428685188293457 20.19991248846054 7.942885875701904 20.19991248846054 7.942885875701904 20.19991248846054 C 7.90428352355957 20.16233867406845 7.923295021057129 20.19991248846054 7.9999847412109375 20.314165472984314 C 8.647491455078125 21.343054950237274 8.99019193649292 21.857142329216003 9.028794288635254 21.857142329216003 C 9.028794288635254 21.857142329216003 22.971195697784424 21.857142329216003 22.971195697784424 21.857142329216003 C 23.008789539337158 21.857142329216003 23.35159730911255 21.343054950237274 23.99998378753662 20.314165472984314 C 24.07568645477295 20.19991248846054 24.094697952270508 20.16233867406845 24.057082653045654 20.19991248846054 C 24.057082653045654 20.19991248846054 28.5712833404541 20.19991248846054 28.5712833404541 20.19991248846054 C 28.914091110229492 20.19991248846054 29.180187702178955 20.12425434589386 29.37159013748169 19.971406519412994 C 29.637686729431152 19.705326735973358 29.771496772766113 19.285888612270355 29.771496772766113 18.714011073112488 C 29.771496772766113 17.191148459911346 29.200186252593994 16.428440868854523 28.057093143463135 16.428440868854523 Z M 5.200187683105469 12.771222233772278 C 6.151899814605713 12.73415893316269 9.75198221206665 12.714044690132141 15.99998426437378 12.714044690132141 C 22.247578620910645 12.714044690132141 25.84718894958496 12.73415893316269 26.79978084564209 12.771222233772278 C 27.180182456970215 12.771222233772278 27.37158489227295 12.581209003925323 27.37158489227295 12.199957311153412 C 27.37158489227295 12.162383496761322 27.37158489227295 12.105205953121185 27.37158489227295 12.028526782989502 C 27.104479789733887 11.381093204021454 26.64749574661255 10.295638799667358 25.99998903274536 8.771244645118713 C 25.42869997024536 7.438293159008026 24.894489765167236 6.69559770822525 24.399890422821045 6.542749881744385 C 24.247583866119385 6.542749881744385 21.447293281555176 6.542749881744385 15.99998426437378 6.542749881744385 C 10.551795482635498 6.542749881744385 7.751998424530029 6.542749881744385 7.600099563598633 6.542749881744385 C 7.104491710662842 6.69559770822525 6.571290016174316 7.438293159008026 5.999979496002197 8.771244645118713 C 5.351593017578125 10.33372312784195 4.894480228424072 11.419688045978546 4.628383636474609 12.028526782989502 C 4.628383636474609 12.105205953121185 4.628383636474609 12.162383496761322 4.628383636474609 12.199957311153412 C 4.628383636474609 12.581209003925323 4.818799018859863 12.771222233772278 5.200187683105469 12.771222233772278 Z M 13.885695457458496 3.5715596675872803 C 13.885695457458496 3.5715596675872803 7.9999847412109375 3.5715596675872803 7.9999847412109375 3.5715596675872803 C 7.237293243408203 3.5715596675872803 6.856891632080078 3.1911247968673706 6.856891632080078 2.428417205810547 C 6.856891632080078 1.6672411561012268 7.237293243408203 1.285887360572815 7.9999847412109375 1.285887360572815 C 7.9999847412109375 1.285887360572815 13.885695457458496 1.285887360572815 13.885695457458496 1.285887360572815 C 14.647485733032227 1.285887360572815 15.028788566589355 1.6672411561012268 15.028788566589355 2.428417205810547 C 15.028788566589355 3.1911247968673706 14.647485733032227 3.5715596675872803 13.885695457458496 3.5715596675872803 Z M 17.942890644073486 1.285887360572815 C 17.180199146270752 1.285887360572815 16.799797534942627 1.6672411561012268 16.799797534942627 2.428417205810547 C 16.799797534942627 3.1911247968673706 17.180199146270752 3.5715596675872803 17.942890644073486 3.5715596675872803 C 17.942890644073486 3.5715596675872803 23.828579902648926 3.5715596675872803 23.828579902648926 3.5715596675872803 C 24.59028434753418 3.5715596675872803 24.971179485321045 3.1911247968673706 24.971179485321045 2.428417205810547 C 24.971179485321045 1.6672411561012268 24.59028434753418 1.285887360572815 23.828579902648926 1.285887360572815 C 23.828579902648926 1.285887360572815 17.942890644073486 1.285887360572815 17.942890644073486 1.285887360572815 Z"/></g></svg>