<svg version="1.1" xmlns="http://www.w3.org/2000/svg" xmlns:xlink="http://www.w3.org/1999/xlink" width="36" height="40"><defs/><g><path fill="rgb(7,119,186)" stroke="none" paint-order="stroke fill markers" fill-rule="evenodd" d=" M 34.206642150878906 14.543148398399353 C 34.39714336395264 14.695485711097717 34.45424222946167 14.90540897846222 34.3780460357666 15.171590864658356 C 34.3780460357666 15.171590864658356 25.120734214782715 38.085593581199646 25.120734214782715 38.085593581199646 C 25.044044494628906 38.31409955024719 24.87264060974121 38.428352534770966 24.606544017791748 38.428352534770966 C 24.529940128326416 38.428352534770966 24.454237461090088 38.40885090827942 24.37804126739502 38.37127709388733 C 24.37804126739502 38.37127709388733 12.206648826599121 33.91418546438217 12.206648826599121 33.91418546438217 C 12.05384874343872 33.87610113620758 11.939543724060059 33.78043085336685 11.863948345184326 33.62860405445099 C 11.787237167358398 33.438590824604034 11.787237167358398 33.26675188541412 11.863948345184326 33.11441457271576 C 11.863948345184326 33.11441457271576 12.949341773986816 30.942995250225067 12.949341773986816 30.942995250225067 C 12.949341773986816 30.942995250225067 1.9210424423217773 25.685724318027496 1.9210424423217773 25.685724318027496 C 1.768242359161377 25.609964072704315 1.6729488372802734 25.495813190937042 1.63533353805542 25.342863261699677 C 1.5582361221313477 25.191138565540314 1.5782346725463867 25.03829073905945 1.6925396919250488 24.885851323604584 C 1.6925396919250488 24.885851323604584 5.12074613571167 18.8288094997406 5.12074613571167 18.8288094997406 C 5.12074613571167 18.8288094997406 14.720844268798828 1.857085108757019 14.720844268798828 1.857085108757019 C 14.835041999816895 1.667173981666565 15.025543212890625 1.5715036988258362 15.292648315429688 1.5715036988258362 C 15.292648315429688 1.5715036988258362 27.464040756225586 2.8287970423698425 27.464040756225586 2.8287970423698425 C 27.464040756225586 2.8287970423698425 27.52113962173462 2.8287970423698425 27.52113962173462 2.8287970423698425 C 27.558239936828613 2.8668813705444336 27.596842288970947 2.885872483253479 27.635337352752686 2.885872483253479 C 27.635337352752686 2.885872483253479 27.692543506622314 2.885872483253479 27.692543506622314 2.885872483253479 C 27.692543506622314 2.885872483253479 27.692543506622314 2.9429479241371155 27.692543506622314 2.9429479241371155 C 27.692543506622314 2.9429479241371155 27.749642372131348 2.9429479241371155 27.749642372131348 2.9429479241371155 C 27.749642372131348 2.9429479241371155 27.749642372131348 3.0002275705337524 27.749642372131348 3.0002275705337524 C 27.749642372131348 3.0002275705337524 27.80674123764038 3.0002275705337524 27.80674123764038 3.0002275705337524 C 27.80674123764038 3.0002275705337524 27.86394739151001 3.057303011417389 27.86394739151001 3.057303011417389 C 27.86394739151001 3.09538733959198 27.88244390487671 3.1143784523010254 27.921046257019043 3.1143784523010254 C 27.88244390487671 3.1143784523010254 27.88244390487671 3.1143784523010254 27.921046257019043 3.1143784523010254 C 27.921046257019043 3.1143784523010254 27.921046257019043 3.171555995941162 27.921046257019043 3.171555995941162 C 27.921046257019043 3.171555995941162 27.921046257019043 3.228733539581299 27.921046257019043 3.228733539581299 C 27.921046257019043 3.228733539581299 27.978145122528076 3.2858089804649353 27.978145122528076 3.2858089804649353 C 27.978145122528076 3.2858089804649353 27.978145122528076 3.3428844213485718 27.978145122528076 3.3428844213485718 C 27.978145122528076 3.3428844213485718 27.978145122528076 3.4000619649887085 27.978145122528076 3.4000619649887085 C 27.978145122528076 3.4000619649887085 27.978145122528076 3.457239508628845 27.978145122528076 3.457239508628845 C 27.978145122528076 3.457239508628845 27.978145122528076 3.5143149495124817 27.978145122528076 3.5143149495124817 C 27.978145122528076 3.552909791469574 27.958640098571777 3.5714924931526184 27.921046257019043 3.5714924931526184 C 27.921046257019043 3.5714924931526184 27.921046257019043 3.628567934036255 27.921046257019043 3.628567934036255 C 27.921046257019043 3.628567934036255 26.37804651260376 6.8858500719070435 26.37804651260376 6.8858500719070435 C 26.37804651260376 6.8858500719070435 34.206642150878906 14.543148398399353 34.206642150878906 14.543148398399353 Z M 7.578228950500488 20.428351283073425 C 7.578228950500488 20.428351283073425 3.0636420249938965 24.94302886724472 3.0636420249938965 24.94302886724472 C 3.0636420249938965 24.94302886724472 3.9210476875305176 25.342863261699677 3.9210476875305176 25.342863261699677 C 3.9210476875305176 25.342863261699677 8.492347240447998 20.771620750427246 8.492347240447998 20.771620750427246 C 8.492347240447998 20.771620750427246 7.578228950500488 20.428351283073425 7.578228950500488 20.428351283073425 Z M 4.3780317306518555 22.428442180156708 C 4.3780317306518555 22.428442180156708 6.663745880126953 20.085592329502106 6.663745880126953 20.085592329502106 C 6.663745880126953 20.085592329502106 5.8639326095581055 19.800010919570923 5.8639326095581055 19.800010919570923 C 5.8639326095581055 19.800010919570923 4.3780317306518555 22.428442180156708 4.3780317306518555 22.428442180156708 Z M 4.720839500427246 25.742799758911133 C 4.720839500427246 25.742799758911133 5.578245162963867 26.14273625612259 5.578245162963867 26.14273625612259 C 5.578245162963867 26.14273625612259 10.320948600769043 21.40006321668625 10.320948600769043 21.40006321668625 C 10.320948600769043 21.40006321668625 9.406830310821533 21.05730426311493 9.406830310821533 21.05730426311493 C 9.406830310821533 21.05730426311493 4.720839500427246 25.742799758911133 4.720839500427246 25.742799758911133 Z M 6.378036975860596 26.543081164360046 C 6.378036975860596 26.543081164360046 7.235442638397217 26.943017661571503 7.235442638397217 26.943017661571503 C 7.235442638397217 26.943017661571503 12.092429637908936 22.02850568294525 12.092429637908936 22.02850568294525 C 12.092429637908936 22.02850568294525 11.178332805633545 21.74282217025757 11.178332805633545 21.74282217025757 C 11.178332805633545 21.74282217025757 6.378036975860596 26.543081164360046 6.378036975860596 26.543081164360046 Z M 8.035234451293945 27.34285205602646 C 8.035234451293945 27.34285205602646 8.892232418060303 27.742788553237915 8.892232418060303 27.742788553237915 C 8.892232418060303 27.742788553237915 13.92103099822998 22.714534103870392 13.92103099822998 22.714534103870392 C 13.92103099822998 22.714534103870392 13.00644063949585 22.37126463651657 13.00644063949585 22.37126463651657 C 13.00644063949585 22.37126463651657 8.035234451293945 27.34285205602646 8.035234451293945 27.34285205602646 Z M 9.69253921508789 28.14272505044937 C 9.69253921508789 28.14272505044937 10.549429893493652 28.54306995868683 10.549429893493652 28.54306995868683 C 10.549429893493652 28.54306995868683 15.749632358551025 23.342874467372894 15.749632358551025 23.342874467372894 C 15.749632358551025 23.342874467372894 14.835041999816895 23.000217616558075 14.835041999816895 23.000217616558075 C 14.835041999816895 23.000217616558075 9.69253921508789 28.14272505044937 9.69253921508789 28.14272505044937 Z M 12.949341773986816 7.342862010002136 C 12.949341773986816 7.342862010002136 11.292637825012207 10.256976783275604 11.292637825012207 10.256976783275604 C 11.292637825012207 10.256976783275604 18.43514585494995 3.057303011417389 18.43514585494995 3.057303011417389 C 18.43514585494995 3.057303011417389 17.349730968475342 2.9429479241371155 17.349730968475342 2.9429479241371155 C 17.349730968475342 2.9429479241371155 12.949341773986816 7.342862010002136 12.949341773986816 7.342862010002136 Z M 11.34973669052124 28.88593101501465 C 11.34973669052124 28.88593101501465 12.206648826599121 29.285765409469604 12.206648826599121 29.285765409469604 C 12.206648826599121 29.285765409469604 17.521134853363037 23.971419036388397 17.521134853363037 23.971419036388397 C 17.521134853363037 23.971419036388397 16.606544494628906 23.628557980060577 16.606544494628906 23.628557980060577 C 16.606544494628906 23.628557980060577 11.34973669052124 28.88593101501465 11.34973669052124 28.88593101501465 Z M 20.663739681243896 3.2858089804649353 C 20.663739681243896 3.2858089804649353 19.57823896408081 3.171555995941162 19.57823896408081 3.171555995941162 C 19.57823896408081 3.171555995941162 11.863948345184326 10.885929763317108 11.863948345184326 10.885929763317108 C 11.863948345184326 10.885929763317108 12.835036754608154 11.171613276004791 12.835036754608154 11.171613276004791 C 12.835036754608154 11.171613276004791 20.663739681243896 3.2858089804649353 20.663739681243896 3.2858089804649353 Z M 13.00644063949585 29.68570190668106 C 13.00644063949585 29.68570190668106 13.863932132720947 30.085638403892517 13.863932132720947 30.085638403892517 C 13.863932132720947 30.085638403892517 19.349736213684082 24.6002699136734 19.349736213684082 24.6002699136734 C 19.349736213684082 24.6002699136734 18.43514585494995 24.314075887203217 18.43514585494995 24.314075887203217 C 18.43514585494995 24.314075887203217 13.00644063949585 29.68570190668106 13.00644063949585 29.68570190668106 Z M 21.178337574005127 25.28578782081604 C 21.178337574005127 25.28578782081604 20.263833045959473 24.94302886724472 20.263833045959473 24.94302886724472 C 20.263833045959473 24.94302886724472 14.263838768005371 30.942995250225067 14.263838768005371 30.942995250225067 C 14.263838768005371 30.942995250225067 13.178338050842285 33.05733913183212 13.178338050842285 33.05733913183212 C 13.178338050842285 33.05733913183212 13.292643070220947 33.11441457271576 13.292643070220947 33.11441457271576 C 13.292643070220947 33.11441457271576 21.178337574005127 25.28578782081604 21.178337574005127 25.28578782081604 Z M 22.892247676849365 3.5143149495124817 C 22.892247676849365 3.5143149495124817 21.80674695968628 3.4000619649887085 21.80674695968628 3.4000619649887085 C 21.80674695968628 3.4000619649887085 13.749648571014404 11.457194685935974 13.749648571014404 11.457194685935974 C 13.749648571014404 11.457194685935974 14.720844268798828 11.68570065498352 14.720844268798828 11.68570065498352 C 14.720844268798828 11.68570065498352 22.892247676849365 3.5143149495124817 22.892247676849365 3.5143149495124817 Z M 22.9493465423584 25.914230287075043 C 22.9493465423584 25.914230287075043 22.035249710083008 25.571471333503723 22.035249710083008 25.571471333503723 C 22.035249710083008 25.571471333503723 14.206632614135742 33.45717352628708 14.206632614135742 33.45717352628708 C 14.206632614135742 33.45717352628708 15.120729446411133 33.8000345826149 15.120729446411133 33.8000345826149 C 15.120729446411133 33.8000345826149 22.9493465423584 25.914230287075043 22.9493465423584 25.914230287075043 Z M 16.26384401321411 2.8287970423698425 C 16.26384401321411 2.8287970423698425 15.521129608154297 2.771619498729706 15.521129608154297 2.771619498729706 C 15.521129608154297 2.771619498729706 14.4923415184021 4.543102324008942 14.4923415184021 4.543102324008942 C 14.4923415184021 4.543102324008942 16.26384401321411 2.8287970423698425 16.26384401321411 2.8287970423698425 Z M 25.120734214782715 3.742820918560028 C 25.120734214782715 3.742820918560028 24.03523349761963 3.628567934036255 24.03523349761963 3.628567934036255 C 24.03523349761963 3.628567934036255 15.692533493041992 11.971384167671204 15.692533493041992 11.971384167671204 C 15.692533493041992 11.971384167671204 16.663729190826416 12.256965577602386 16.663729190826416 12.256965577602386 C 16.663729190826416 12.256965577602386 25.120734214782715 3.742820918560028 25.120734214782715 3.742820918560028 Z M 24.777947902679443 26.543081164360046 C 24.777947902679443 26.543081164360046 23.86393690109253 26.199913799762726 23.86393690109253 26.199913799762726 C 23.86393690109253 26.199913799762726 15.978135108947754 34.08561599254608 15.978135108947754 34.08561599254608 C 15.978135108947754 34.08561599254608 16.892231941223145 34.4283749461174 16.892231941223145 34.4283749461174 C 16.892231941223145 34.4283749461174 24.777947902679443 26.543081164360046 24.777947902679443 26.543081164360046 Z M 26.263848781585693 3.8570739030838013 C 26.263848781585693 3.8570739030838013 17.57823371887207 12.485471546649933 17.57823371887207 12.485471546649933 C 17.57823371887207 12.485471546649933 18.549429416656494 12.771563470363617 18.549429416656494 12.771563470363617 C 18.549429416656494 12.771563470363617 25.692538261413574 5.628556728363037 25.692538261413574 5.628556728363037 C 25.692538261413574 5.628556728363037 26.549428939819336 3.9141493439674377 26.549428939819336 3.9141493439674377 C 26.549428939819336 3.9141493439674377 26.263848781585693 3.8570739030838013 26.263848781585693 3.8570739030838013 Z M 26.549428939819336 27.17162573337555 C 26.549428939819336 27.17162573337555 25.635332107543945 26.885942220687866 25.635332107543945 26.885942220687866 C 25.635332107543945 26.885942220687866 17.8067364692688 34.77164441347122 17.8067364692688 34.77164441347122 C 17.8067364692688 34.77164441347122 18.663734436035156 35.057327926158905 18.663734436035156 35.057327926158905 C 18.663734436035156 35.057327926158905 26.549428939819336 27.17162573337555 26.549428939819336 27.17162573337555 Z M 24.606544017791748 7.971406579017639 C 24.606544017791748 7.971406579017639 19.521140098571777 13.0573490858078 19.521140098571777 13.0573490858078 C 19.521140098571777 13.0573490858078 20.4923357963562 13.285752952098846 20.4923357963562 13.285752952098846 C 20.4923357963562 13.285752952098846 23.464030265808105 10.31405222415924 23.464030265808105 10.31405222415924 C 23.464030265808105 10.31405222415924 24.606544017791748 7.971406579017639 24.606544017791748 7.971406579017639 Z M 28.03524398803711 27.742788553237915 C 28.03524398803711 27.742788553237915 27.464040756225586 27.51428258419037 27.464040756225586 27.51428258419037 C 27.464040756225586 27.51428258419037 19.57823896408081 35.400086879730225 19.57823896408081 35.400086879730225 C 19.57823896408081 35.400086879730225 20.4923357963562 35.742845833301544 20.4923357963562 35.742845833301544 C 20.4923357963562 35.742845833301544 27.749642372131348 28.428408563137054 27.749642372131348 28.428408563137054 C 27.749642372131348 28.428408563137054 28.03524398803711 27.742788553237915 28.03524398803711 27.742788553237915 Z M 33.17834758758545 15.057337880134583 C 33.17834758758545 15.057337880134583 25.86394214630127 7.971406579017639 25.86394214630127 7.971406579017639 C 25.86394214630127 7.971406579017639 22.9493465423584 14.028448402881622 22.9493465423584 14.028448402881622 C 22.9493465423584 14.028448402881622 24.606544017791748 14.485460340976715 24.606544017791748 14.485460340976715 C 24.758442878723145 14.524055182933807 24.87264060974121 14.619827568531036 24.94933032989502 14.7715522646904 C 25.025547981262207 14.923991680145264 25.025547981262207 15.095422208309174 24.94933032989502 15.285843849182129 C 24.94933032989502 15.285843849182129 20.777937412261963 23.91424149274826 20.777937412261963 23.91424149274826 C 20.777937412261963 23.91424149274826 28.492335319519043 26.65743625164032 28.492335319519043 26.65743625164032 C 28.492335319519043 26.65743625164032 33.17834758758545 15.057337880134583 33.17834758758545 15.057337880134583 Z M 22.263838291168213 36.37128829956055 C 22.263838291168213 36.37128829956055 26.092444896697998 32.54314965009689 26.092444896697998 32.54314965009689 C 26.092444896697998 32.54314965009689 26.94933557510376 30.485472798347473 26.94933557510376 30.485472798347473 C 26.94933557510376 30.485472798347473 21.349741458892822 36.085604786872864 21.349741458892822 36.085604786872864 C 21.349741458892822 36.085604786872864 22.263838291168213 36.37128829956055 22.263838291168213 36.37128829956055 Z M 22.37803602218628 12.657412588596344 C 22.37803602218628 12.657412588596344 21.406840324401855 13.57153856754303 21.406840324401855 13.57153856754303 C 21.406840324401855 13.57153856754303 21.86393165588379 13.685689449310303 21.86393165588379 13.685689449310303 C 21.86393165588379 13.685689449310303 22.37803602218628 12.657412588596344 22.37803602218628 12.657412588596344 Z M 25.29263162612915 34.60031598806381 C 25.29263162612915 34.60031598806381 23.178342819213867 36.71445566415787 23.178342819213867 36.71445566415787 C 23.178342819213867 36.71445566415787 24.263843536376953 37.114392161369324 24.263843536376953 37.114392161369324 C 24.263843536376953 37.114392161369324 25.29263162612915 34.60031598806381 25.29263162612915 34.60031598806381 Z"/></g></svg>