<svg version="1.1" xmlns="http://www.w3.org/2000/svg" xmlns:xlink="http://www.w3.org/1999/xlink" width="36" height="40"><defs/><g><path fill="rgb(7,119,186)" stroke="none" paint-order="stroke fill markers" fill-rule="evenodd" d=" M 23.486085891723633 35.25217401981354 C 27.388099193572998 35.18631774187088 31.084097385406494 35.68120980262756 32.31909370422363 36.21408408880234 C 31.099096298217773 36.492211997509 27.501095294952393 35.98118770122528 23.486085891723633 35.25217401981354 C 19.471097946166992 34.523160338401794 23.486085891723633 35.25217401981354 23.486085891723633 35.25217401981354 M 15.91708517074585 15.655285656452179 C 15.91708517074585 15.655285656452179 20.966096878051758 20.704369068145752 20.966096878051758 20.704369068145752 C 20.966096878051758 20.704369068145752 16.9270977973938 24.742226779460907 16.9270977973938 24.742226779460907 C 16.9270977973938 24.742226779460907 11.87909460067749 19.694368600845337 11.87909460067749 19.694368600845337 C 11.87909460067749 19.694368600845337 15.91708517074585 15.655285656452179 15.91708517074585 15.655285656452179 Z M 24.688080310821533 6.884250462055206 C 24.688080310821533 6.884250462055206 29.73709201812744 11.932210743427277 29.73709201812744 11.932210743427277 C 29.73709201812744 11.932210743427277 25.698092937469482 15.971191585063934 25.698092937469482 15.971191585063934 C 25.698092937469482 15.971191585063934 20.650089740753174 10.923435509204865 20.650089740753174 10.923435509204865 C 20.650089740753174 10.923435509204865 24.688080310821533 6.884250462055206 24.688080310821533 6.884250462055206 Z M 18.34109401702881 34.256059527397156 C 16.405097007751465 33.86327022314072 14.564093112945557 33.474156618118286 13.039096355438232 33.151205599308014 C 11.233089923858643 32.7693412899971 9.715088367462158 32.45016807317734 8.461080551147461 32.198280572891235 C 8.461080551147461 32.198280572891235 11.67009687423706 28.989293038845062 11.67009687423706 28.989293038845062 C 11.745091438293457 28.994193971157074 11.819098949432373 29.011347234249115 11.89409351348877 29.011347234249115 C 12.990087032318115 29.011347234249115 14.08708906173706 28.593338549137115 14.92307996749878 27.756095945835114 C 14.92307996749878 27.756095945835114 16.263090133666992 26.41630357503891 16.263090133666992 26.41630357503891 C 16.263090133666992 26.41630357503891 17.432082653045654 25.247329115867615 17.432082653045654 25.247329115867615 C 17.432082653045654 25.247329115867615 21.470094680786133 21.208348274230957 21.470094680786133 21.208348274230957 C 21.470094680786133 21.208348274230957 26.203099250793457 16.476293921470642 26.203099250793457 16.476293921470642 C 26.203099250793457 16.476293921470642 30.242098331451416 12.437313079833984 30.242098331451416 12.437313079833984 C 30.242098331451416 12.437313079833984 31.278096199035645 11.400153279304504 31.278096199035645 11.400153279304504 C 31.278096199035645 11.400153279304504 33.24509954452515 9.434368908405304 33.24509954452515 9.434368908405304 C 34.918089866638184 7.7613131403923035 34.918089866638184 5.049259722232819 33.24509954452515 3.3763060569763184 C 31.57309627532959 1.7022292613983154 28.859086990356445 1.7022292613983154 27.18708372116089 3.3763060569763184 C 27.18708372116089 3.3763060569763184 25.220080375671387 5.342294633388519 25.220080375671387 5.342294633388519 C 25.220080375671387 5.342294633388519 24.184082508087158 6.3791481256484985 24.184082508087158 6.3791481256484985 C 24.184082508087158 6.3791481256484985 20.1450834274292 10.418231070041656 20.1450834274292 10.418231070041656 C 20.1450834274292 10.418231070041656 15.412078857421875 15.150183320045471 15.412078857421875 15.150183320045471 C 15.412078857421875 15.150183320045471 11.374088287353516 19.18916416168213 11.374088287353516 19.18916416168213 C 11.374088287353516 19.18916416168213 10.205095767974854 20.358240723609924 10.205095767974854 20.358240723609924 C 10.205095767974854 20.358240723609924 8.86508560180664 21.69833940267563 8.86508560180664 21.69833940267563 C 7.971094608306885 22.592249035835266 7.570093631744385 23.78133773803711 7.631097793579102 24.951231122016907 C 7.631097793579102 24.951231122016907 2.3370823860168457 30.245054841041565 2.3370823860168457 30.245054841041565 C 1.221090316772461 31.36011904478073 1.221090316772461 33.16917568445206 2.3370823860168457 34.28423988819122 C 2.894080638885498 34.84233355522156 3.6250791549682617 35.121380388736725 4.3560991287231445 35.121380388736725 C 5.087097644805908 35.121380388736725 5.818096160888672 34.84233355522156 6.376081466674805 34.28423988819122 C 6.376081466674805 34.28423988819122 7.245095729827881 33.41432440280914 7.245095729827881 33.41432440280914 C 8.774083614349365 33.71021819114685 10.726088047027588 34.121385991573334 12.743087768554688 34.548379719257355 C 13.536098957061768 34.716338753700256 14.30409049987793 34.87715059518814 15.047083854675293 35.033163607120514 C 7.887087821960449 37.03131455183029 4.539090156555176 36.52417016029358 3.6800966262817383 35.87918704748154 C 3.4470877647399902 35.70540815591812 3.4470877647399902 35.569407284259796 3.4470877647399902 35.51131081581116 C 3.4470877647399902 35.11617314815521 3.127089500427246 34.79710203409195 2.733083724975586 34.79710203409195 C 2.3380908966064453 34.79710203409195 2.0190796852111816 35.11617314815521 2.0190796852111816 35.51131081581116 C 2.0190796852111816 35.92625641822815 2.1580824851989746 36.52417016029358 2.8240857124328613 37.02324843406677 C 3.591090202331543 37.59624910354614 4.893098831176758 37.87917584180832 6.619089603424072 37.87917584180832 C 9.08408260345459 37.87917584180832 12.412081718444824 37.30229526758194 16.270085334777832 36.167321026325226 C 16.90609073638916 35.98026877641678 17.588079929351807 35.82619571685791 18.29907989501953 35.70122194290161 C 27.452085971832275 37.55234491825104 32.18809461593628 38.18436098098755 33.473087310791016 37.24726188182831 C 34.1260871887207 36.77125883102417 34.14709424972534 36.17426401376724 33.95009136199951 35.77320438623428 C 33.067086696624756 33.98507881164551 24.36808204650879 33.290269553661346 18.34109401702881 34.256059527397156 C 12.314084529876709 35.221849501132965 18.34109401702881 34.256059527397156 18.34109401702881 34.256059527397156"/></g></svg>